<svg width="20" height="20" viewBox="0 0 20 20" fill="none" xmlns="http://www.w3.org/2000/svg">
<path d="M7.6066 7.60658L11.8492 11.8492M11.8492 7.60658L7.6066 11.8492M16.0919 3.36394C16.9276 4.19967 17.5905 5.19182 18.0428 6.28375C18.4951 7.37568 18.7279 8.54601 18.7279 9.72791C18.7279 10.9098 18.4951 12.0801 18.0428 13.1721C17.5905 14.264 16.9276 15.2561 16.0919 16.0919C15.2562 16.9276 14.264 17.5905 13.1721 18.0428C12.0801 18.4951 10.9098 18.7279 9.72792 18.7279C8.54602 18.7279 7.3757 18.4951 6.28377 18.0428C5.19184 17.5905 4.19969 16.9276 3.36396 16.0919C1.67613 14.404 0.727922 12.1149 0.727922 9.72791C0.727922 7.34096 1.67613 5.05177 3.36396 3.36394C5.05179 1.67612 7.34097 0.727906 9.72792 0.727906C12.1149 0.727906 14.4041 1.67612 16.0919 3.36394Z" stroke="#FF0000" stroke-linecap="round" stroke-linejoin="round"/>
</svg>
