<svg width="42" height="42" viewBox="0 0 42 42" fill="none" xmlns="http://www.w3.org/2000/svg">
<circle cx="21" cy="21" r="21" fill="#D6E3EA"/>
<path d="M21 12C23.755 12 26.455 12.232 29.083 12.678C29.616 12.768 30 13.234 30 13.774V14.818C30 15.1135 29.9418 15.4061 29.8287 15.679C29.7157 15.952 29.5499 16.2001 29.341 16.409L23.909 21.841C23.7001 22.0499 23.5343 22.298 23.4213 22.571C23.3082 22.8439 23.25 23.1365 23.25 23.432V26.359C23.2501 26.777 23.1337 27.1867 22.914 27.5423C22.6943 27.8978 22.3799 28.1851 22.006 28.372L18.75 30V23.432C18.75 23.1365 18.6918 22.8439 18.5787 22.571C18.4657 22.298 18.2999 22.0499 18.091 21.841L12.659 16.409C12.4501 16.2001 12.2843 15.952 12.1713 15.679C12.0582 15.4061 12 15.1135 12 14.818V13.774C12 13.234 12.384 12.768 12.917 12.678C15.5876 12.2259 18.2914 11.9991 21 12Z" stroke="black" stroke-width="1.5" stroke-linecap="round" stroke-linejoin="round"/>
</svg>
