<svg width="32" height="32" viewBox="0 0 32 32" fill="none" xmlns="http://www.w3.org/2000/svg">
<path d="M28.9745 3.02529C28.3182 2.36903 27.428 2.00037 26.4999 2.00037C25.5717 2.00037 24.6815 2.36903 24.0252 3.02529L22.4825 4.56795L27.4318 9.51729L28.9745 7.97462C29.6308 7.31826 29.9994 6.42811 29.9994 5.49995C29.9994 4.5718 29.6308 3.68165 28.9745 3.02529ZM26.0172 10.932L21.0679 5.98262L4.86785 22.1826C4.04499 23.0051 3.44009 24.0196 3.10785 25.1346L2.04118 28.7146C1.98969 28.8874 1.98585 29.0708 2.03007 29.2456C2.07429 29.4204 2.16493 29.5799 2.2924 29.7074C2.41988 29.8349 2.57943 29.9255 2.7542 29.9697C2.92896 30.014 3.11243 30.0101 3.28518 29.9586L6.86518 28.892C7.98015 28.5597 8.99473 27.9548 9.81718 27.132L26.0172 10.932Z" fill="black"/>
</svg>
