<svg width="32" height="32" viewBox="0 0 32 32" fill="none" xmlns="http://www.w3.org/2000/svg">
<path d="M23.9759 24.9666C23.0443 23.7331 21.8389 22.7328 20.4548 22.0445C19.0708 21.3561 17.5457 20.9986 15.9999 21C14.4541 20.9986 12.9291 21.3561 11.545 22.0445C10.1609 22.7328 8.95559 23.7331 8.02394 24.9666M23.9759 24.9666C25.7939 23.3496 27.0761 21.218 27.6548 18.8548C28.2336 16.4915 28.0803 14.0081 27.2152 11.7339C26.3502 9.4598 24.8142 7.50234 22.8111 6.12117C20.808 4.74 18.4324 4.00037 15.9993 4.00037C13.5662 4.00037 11.1905 4.74 9.18741 6.12117C7.1843 7.50234 5.64838 9.4598 4.78332 11.7339C3.91826 14.0081 3.76494 16.4915 4.34369 18.8548C4.92245 21.218 6.20594 23.3496 8.02394 24.9666M23.9759 24.9666C21.7813 26.9242 18.9408 28.0042 15.9999 28C13.0586 28.0045 10.2189 26.9245 8.02394 24.9666M19.9999 13C19.9999 14.0608 19.5785 15.0783 18.8284 15.8284C18.0782 16.5785 17.0608 17 15.9999 17C14.9391 17 13.9217 16.5785 13.1715 15.8284C12.4214 15.0783 11.9999 14.0608 11.9999 13C11.9999 11.9391 12.4214 10.9217 13.1715 10.1715C13.9217 9.4214 14.9391 8.99997 15.9999 8.99997C17.0608 8.99997 18.0782 9.4214 18.8284 10.1715C19.5785 10.9217 19.9999 11.9391 19.9999 13Z" stroke="black" stroke-width="1.5" stroke-linecap="round" stroke-linejoin="round"/>
</svg>
