<svg width="32" height="32" viewBox="0 0 32 32" fill="none" xmlns="http://www.w3.org/2000/svg">
<path d="M23.9762 24.9666C23.0445 23.7331 21.8392 22.7328 20.4551 22.0445C19.071 21.3561 17.546 20.9986 16.0002 21C14.4544 20.9986 12.9294 21.3561 11.5453 22.0445C10.1612 22.7328 8.95583 23.7331 8.02418 24.9666M23.9762 24.9666C25.7942 23.3496 27.0763 21.218 27.6551 18.8548C28.2338 16.4915 28.0805 14.0081 27.2155 11.7339C26.3504 9.4598 24.8145 7.50234 22.8114 6.12117C20.8083 4.74 18.4326 4.00037 15.9995 4.00037C13.5664 4.00037 11.1908 4.74 9.18765 6.12117C7.18455 7.50234 5.64862 9.4598 4.78356 11.7339C3.9185 14.0081 3.76518 16.4915 4.34394 18.8548C4.9227 21.218 6.20618 23.3496 8.02418 24.9666M23.9762 24.9666C21.7815 26.9242 18.941 28.0042 16.0002 28C13.0589 28.0045 10.2192 26.9245 8.02418 24.9666M20.0002 13C20.0002 14.0608 19.5788 15.0783 18.8286 15.8284C18.0785 16.5785 17.061 17 16.0002 17C14.9393 17 13.9219 16.5785 13.1718 15.8284C12.4216 15.0783 12.0002 14.0608 12.0002 13C12.0002 11.9391 12.4216 10.9217 13.1718 10.1715C13.9219 9.4214 14.9393 8.99997 16.0002 8.99997C17.061 8.99997 18.0785 9.4214 18.8286 10.1715C19.5788 10.9217 20.0002 11.9391 20.0002 13Z" stroke="black" stroke-width="1.5" stroke-linecap="round" stroke-linejoin="round"/>
</svg>
