<svg width="32" height="32" viewBox="0 0 32 32" fill="none" xmlns="http://www.w3.org/2000/svg">
<path d="M26 1.33337H6C2.692 1.33337 0 4.02537 0 7.33337V24.6667C0 27.9747 2.692 30.6667 6 30.6667H26C29.308 30.6667 32 27.9747 32 24.6667V7.33337C32 4.02537 29.308 1.33337 26 1.33337ZM30.6667 24.6667C30.6667 27.24 28.5733 29.3334 26 29.3334H6C3.42667 29.3334 1.33333 27.24 1.33333 24.6667V7.33337C1.33333 4.76004 3.42667 2.66671 6 2.66671H26C28.5733 2.66671 30.6667 4.76004 30.6667 7.33337V24.6667ZM26.6667 8.66671C26.6667 9.03471 26.368 9.33337 26 9.33337H12.6667C12.2987 9.33337 12 9.03471 12 8.66671C12 8.29871 12.2987 8.00004 12.6667 8.00004H26C26.368 8.00004 26.6667 8.29871 26.6667 8.66671ZM8 8.66671C8 9.40271 7.40267 10 6.66667 10C5.93067 10 5.33333 9.40271 5.33333 8.66671C5.33333 7.93071 5.93067 7.33337 6.66667 7.33337C7.40267 7.33337 8 7.93071 8 8.66671ZM26.6667 16C26.6667 16.368 26.368 16.6667 26 16.6667H12.6667C12.2987 16.6667 12 16.368 12 16C12 15.632 12.2987 15.3334 12.6667 15.3334H26C26.368 15.3334 26.6667 15.632 26.6667 16ZM8 16C8 16.736 7.40267 17.3334 6.66667 17.3334C5.93067 17.3334 5.33333 16.736 5.33333 16C5.33333 15.264 5.93067 14.6667 6.66667 14.6667C7.40267 14.6667 8 15.264 8 16ZM26.6667 23.3334C26.6667 23.7014 26.368 24 26 24H12.6667C12.2987 24 12 23.7014 12 23.3334C12 22.9654 12.2987 22.6667 12.6667 22.6667H26C26.368 22.6667 26.6667 22.9654 26.6667 23.3334ZM8 23.3334C8 24.0694 7.40267 24.6667 6.66667 24.6667C5.93067 24.6667 5.33333 24.0694 5.33333 23.3334C5.33333 22.5974 5.93067 22 6.66667 22C7.40267 22 8 22.5974 8 23.3334Z" fill="black"/>
</svg>
