<svg width="32" height="32" viewBox="0 0 32 32" fill="none" xmlns="http://www.w3.org/2000/svg">
<path d="M25.3333 1.33333H6.66667C2.99067 1.33333 0 4.324 0 8V24C0 27.676 2.99067 30.6667 6.66667 30.6667H25.3333C29.0093 30.6667 32 27.676 32 24V8C32 4.324 29.0093 1.33333 25.3333 1.33333ZM8.66667 24.6667C7.56267 24.6667 6.66667 23.7707 6.66667 22.6667C6.66667 21.5627 7.56267 20.6667 8.66667 20.6667C9.77067 20.6667 10.6667 21.5627 10.6667 22.6667C10.6667 23.7707 9.77067 24.6667 8.66667 24.6667ZM8.66667 18C7.56267 18 6.66667 17.104 6.66667 16C6.66667 14.896 7.56267 14 8.66667 14C9.77067 14 10.6667 14.896 10.6667 16C10.6667 17.104 9.77067 18 8.66667 18ZM8.66667 11.3333C7.56267 11.3333 6.66667 10.4373 6.66667 9.33333C6.66667 8.22933 7.56267 7.33333 8.66667 7.33333C9.77067 7.33333 10.6667 8.22933 10.6667 9.33333C10.6667 10.4373 9.77067 11.3333 8.66667 11.3333ZM24 24H14.6667C13.9307 24 13.3333 23.4027 13.3333 22.6667C13.3333 21.9307 13.9307 21.3333 14.6667 21.3333H24C24.736 21.3333 25.3333 21.9307 25.3333 22.6667C25.3333 23.4027 24.736 24 24 24ZM24 17.3333H14.6667C13.9307 17.3333 13.3333 16.736 13.3333 16C13.3333 15.264 13.9307 14.6667 14.6667 14.6667H24C24.736 14.6667 25.3333 15.264 25.3333 16C25.3333 16.736 24.736 17.3333 24 17.3333ZM24 10.6667H14.6667C13.9307 10.6667 13.3333 10.0693 13.3333 9.33333C13.3333 8.59733 13.9307 8 14.6667 8H24C24.736 8 25.3333 8.59733 25.3333 9.33333C25.3333 10.0693 24.736 10.6667 24 10.6667Z" fill="black"/>
</svg>
