<svg width="52" height="52" viewBox="0 0 52 52" fill="none" xmlns="http://www.w3.org/2000/svg">
<circle cx="26" cy="26" r="26" fill="black"/>
<path d="M18.8311 41.6736V35.829C18.8311 34.2961 19.5709 32.8854 20.6593 31.8061C21.6228 30.8506 22.4098 29.8334 23.4672 28.3237C24.1334 33.7573 24.1421 36.7911 24.1316 41.6755C24.1304 42.2271 23.683 42.6736 23.1315 42.6736H19.8311C19.2788 42.6736 18.8311 42.2259 18.8311 41.6736Z" fill="white"/>
<path d="M19.0519 12.4293V10C20.1366 10.3984 21.8279 10.3299 24.7918 10.2208C27.7261 10.0988 29.7545 10.1225 31.3359 10.2085C33.1442 10.3068 34.948 10.782 36.4081 11.8534C38.641 13.4919 39.9476 15.6385 39.9704 19.2638C39.9871 21.9249 39.3238 24.6953 37.5318 26.6628C35.6133 28.7691 32.7648 29.6084 27.5277 29.8405C27.084 29.8601 26.6782 29.5801 26.5663 29.1503C26.1826 27.6762 26.2411 26.5851 26.3344 24.8435L26.3372 24.7914C27.9228 24.8025 28.6159 24.72 29.8338 24.5749L29.8695 24.5707C32.9185 24.3512 34.2664 23.5212 34.6308 20.8909C34.8585 19.2469 34.6362 17.4176 33.4424 16.2646C31.9654 14.8381 29.5966 14.6777 25.927 14.8097C25.1718 14.8369 24.42 14.9421 23.6701 15.035C22.5473 15.1741 21.6886 15.1478 20.9411 15.0131C19.7561 14.7997 19.0519 13.6334 19.0519 12.4293Z" fill="white"/>
<path d="M35.3887 33.6221C34.2472 31.1225 31.928 30.8514 27.2203 30.7522C29.1859 33.225 30.0253 34.3552 30.7526 35.609C32.2473 38.49 33.2671 40.2974 34.2235 41.4652C35.121 42.5612 36.5766 42.8944 37.9932 42.8944H41.1286C39.2089 40.8123 38.5585 39.9678 38.0379 38.9206C37.091 37.2654 36.5057 36.0809 35.3887 33.6221Z" fill="white"/>
<path d="M21.9638 22.2692C20.8352 21.1235 20.2202 20.6752 19.4937 20.3148C19.2327 19.3198 19.3077 18.2632 19.7144 15.6787C21.8722 16.192 22.6982 16.0998 23.909 15.6787C24.3647 17.1979 24.5091 20.2048 24.1217 22.0598C23.888 23.1787 22.766 23.0835 21.9638 22.2692Z" fill="white"/>
<path d="M15.7399 30.7523C11.6644 30.3222 10.7897 28.1577 9.99994 23.2462L14.1945 23.4669V17.9478L17.7268 20.1554C20.2736 21.8024 21.2591 23.0254 21.2591 25.6746C20.8175 29.6484 19.5444 30.6969 15.7399 30.7523Z" fill="white"/>
<path d="M17.0644 26.7784C15.5985 26.4321 14.9538 26.1209 13.9736 25.4538C14.5663 26.6423 15.1263 27.3473 15.9262 28.0085C16.6731 28.6258 17.8881 28.5018 18.1335 27.5644C18.2312 27.1913 18.2637 26.7685 18.2462 26.2477C18.2234 25.5715 18.0855 24.8989 17.8114 24.2803C17.3272 23.188 16.6901 22.4787 15.519 21.48C15.4917 21.7359 15.4741 21.9661 15.4706 22.186C15.4474 23.6585 16.6786 24.8492 16.974 26.2919C17.0049 26.4427 17.0344 26.6041 17.0644 26.7784Z" fill="black"/>
</svg>
