<svg width="114" height="30" viewBox="0 0 114 30" fill="none" xmlns="http://www.w3.org/2000/svg">
<path d="M17.8338 16.7518C18.1638 16.3137 18.8353 15.9381 19.1995 15.443C19.5182 15.0675 19.7629 14.6862 19.9734 14.3106C20.2181 13.8952 20.3035 13.6107 20.5083 13.5765C21.1912 13.5993 20.975 14.6691 21.0205 15.1585C21.0205 16.0235 21.0205 17.116 21.0205 17.9241C21.0034 18.5557 20.6677 21.7595 21.0262 23.2789C21.1115 23.6374 21.2367 24.1438 20.6904 24.0699C20.0474 24.0357 19.0516 24.0186 18.4541 24.0528C18.2207 24.0528 18.0216 24.0755 17.7143 24.0755C17.5777 24.0755 17.6005 24.0129 17.5322 23.8138C17.4867 23.6317 17.4241 23.2732 17.3956 22.9773C17.2818 21.2303 17.2761 18.2371 17.811 16.7917L17.8338 16.7518Z" fill="black"/>
<path d="M16.759 8.11938C15.9908 9.71273 15.5924 10.6858 16.3037 12.0572C16.7704 12.9506 17.715 13.4059 18.6027 13.3945C19.6896 13.3774 20.6627 12.6035 21.0155 11.0671C21.2374 10.094 20.5659 8.73396 19.866 7.31702L18.3125 9.40544L16.759 8.11938Z" fill="black"/>
<path d="M19.4729 9.02972C19.4729 9.02972 19.5014 9.01834 19.507 9.02972C19.9623 10.1735 19.8086 11.1295 19.0575 11.9148C18.6079 12.3871 18.1527 12.5692 17.9251 11.9148C17.7259 11.3344 17.7373 10.7369 17.7828 10.1564L18.6307 11.4425C18.9152 11.1238 18.7957 10.5434 18.9608 9.89468C19.0177 9.67275 19.3762 9.15491 19.4729 9.02972Z" fill="white"/>
<path d="M29.7841 16.0973C29.437 15.6193 28.8679 14.5722 28.1054 14.5722C26.8933 14.5722 26.7909 15.6079 26.3356 15.8697C25.243 16.507 25.2146 15.4201 23.6838 15.9038C24.4065 14.6917 26.1194 13.3488 28.0485 13.3488C29.4427 13.3488 30.484 13.9007 31.3205 14.5381C31.6221 14.76 32.1741 15.6932 32.1741 15.6932C32.1741 15.6932 30.1824 16.6549 29.7784 16.0973H29.7841Z" fill="black"/>
<path d="M32.1398 22.3171C30.3758 21.8334 28.4239 22.0211 26.5859 21.9927C26.3412 21.9585 26.0908 21.8675 25.9542 21.657C25.499 20.9855 25.9997 20.3481 26.7111 20.24C27.2744 20.149 27.7524 20.2798 28.3556 20.2514C29.8864 20.2116 31.7984 19.3864 32.43 17.8841C32.5097 17.6907 32.4926 17.5541 32.265 17.5484C31.6391 17.685 30.444 17.3606 30.0002 17.6508C29.6701 18.0378 29.4368 18.6467 29.0442 18.9824C28.1166 19.8417 26.9045 19.0735 26.5972 18.0093C26.4891 17.7646 26.3696 17.7646 26.0623 17.8443C25.3169 18.0833 24.3153 17.2866 23.6496 17.7988C23.4902 18.2028 23.9796 18.5898 24.2471 18.88C24.5828 19.2271 26.0396 19.8018 24.9242 20.2002C24.4405 20.3424 23.8601 20.4164 23.3935 20.6497C22.17 21.3667 23.6496 23.1991 24.4405 23.7055C25.277 24.2063 24.6966 24.3998 24.0365 24.6274C23.3878 24.8778 22.7846 25.2534 22.4659 25.9362C21.2482 28.5368 24.4861 29.6123 27.2289 29.5042C29.6815 29.4074 32.5097 28.3376 33.6706 26.6988C34.8201 25.1794 34.0461 22.8406 32.2309 22.3569L32.1455 22.3284L32.1398 22.3171ZM27.5931 28.258C26.8761 28.258 25.8973 28.0645 25.3965 27.5409C24.5088 26.7044 24.8218 25.1452 25.8518 24.5876C26.068 24.451 26.3013 24.3998 26.5574 24.4055C27.724 24.4055 29.0783 24.4055 29.8579 24.542C30.4156 24.6388 31.1497 24.6957 31.5765 25.0656C32.1171 25.5948 31.8553 26.4654 31.4171 26.9947C30.5863 27.9848 28.9588 28.258 27.6784 28.258H27.5874H27.5931Z" fill="black"/>
<path d="M46.8042 13.6388C46.827 12.7341 47.4188 13.7527 48.6365 11.8919C48.8016 11.6415 48.9894 11.5277 49.1487 11.522C49.3422 11.522 49.6381 11.6642 49.6381 12.1138V12.9332C49.6381 13.5706 49.6608 13.673 50.1901 13.673C50.6396 13.673 51.9712 13.5706 52.5061 13.5706C52.8362 13.5706 53.0808 13.5933 53.0808 14.1851C53.0808 14.72 52.8134 15.0842 52.4663 15.0842C52.2216 15.0842 50.4575 14.8395 50.0706 14.8395C49.5584 14.8395 49.456 15.107 49.456 15.6191C49.456 15.6191 49.3536 18.8741 49.3536 20.1488C49.3536 21.5031 49.8259 22.0551 51.0721 22.0551C51.7493 22.0551 52.1761 21.7478 52.5289 21.7478C52.8362 21.7478 52.9158 22.0551 52.9158 22.1803C52.9158 22.7949 50.9924 23.859 49.4731 23.859C48.6081 23.859 46.6164 23.859 46.6449 21.3609C46.7018 16.5296 46.7302 16.5581 46.7985 13.6445L46.8042 13.6388Z" fill="black"/>
<path d="M113.572 20.9461C111.836 21.9648 108.803 22.6761 107.568 20.5023C106.919 19.3471 106.771 18.4025 107.13 17.8164C107.357 17.6513 107.335 17.7538 107.71 17.7367C109.406 17.7879 111.751 18.0155 113.469 17.9245C113.628 17.9188 113.697 17.7481 113.725 17.5546C113.811 17.1392 113.697 16.4848 113.589 16.0125C113.554 15.8987 113.577 15.8645 113.52 15.819C113.139 15.5686 112.684 15.7507 112.229 15.8645C111.813 16.0011 111.483 15.8987 111.096 15.8474C110.834 16.0751 110.584 16.4848 110.231 16.6612C109.349 17.014 108.905 16.8888 107.505 16.9343C107.329 16.9173 107.164 16.9628 107.13 16.6953C107.056 16.4563 107.289 16.0694 107.306 15.8645C107.301 15.819 107.187 15.8588 107.067 15.8645C106.754 15.8987 106.475 15.7735 106.191 15.6767C105.81 15.5231 105.309 15.5629 104.979 15.8531C104.933 15.9556 104.763 16.3596 104.598 16.866C103.761 18.761 104.387 21.5038 105.662 22.5679C107.477 24.3548 110.476 24.1328 112.502 22.8923C113.116 22.5452 114.715 21.299 113.634 20.9291H113.566L113.572 20.9461Z" fill="black"/>
<path d="M107.46 14.9597C108.234 15.0223 108.894 14.1232 109.668 14.0549C109.992 14.0208 110.442 14.1744 110.704 14.385C111.091 14.6581 111.125 14.88 111.392 15.0052C111.643 15.0735 111.882 14.863 112.177 14.8516C112.473 14.8004 112.889 14.8857 113.122 14.9369C113.128 14.9256 113.139 14.9028 113.151 14.8914C112.377 13.685 110.738 13.1956 109.44 13.2412C107.915 13.2696 106.595 13.9127 105.662 14.9369C106.094 14.8061 106.885 14.8174 107.392 14.9483L107.466 14.9597H107.46Z" fill="black"/>
<path d="M93.7971 22.2377C93.7971 22.6645 93.7857 22.7441 93.7686 23.0742C93.7401 23.4782 93.6832 23.9505 94.2694 23.8766C94.7701 23.8367 95.601 23.7514 96.1643 23.8197C96.244 23.8197 96.409 23.8083 96.4944 23.8026C96.5911 23.6945 96.5513 23.4099 96.574 23.2278C96.6253 18.886 96.6992 12.3931 96.8415 8.31867C96.7334 6.67411 94.0588 7.42526 93.6036 8.47232" fill="black"/>
<path d="M104.034 13.0418C103.528 12.5354 102.082 12.4785 101.405 12.7345C100.95 12.911 99.8516 13.9068 99.6354 14.1458C98.8671 14.988 96.8356 16.3253 96.8356 16.3253C96.8356 16.3253 97.7404 16.331 98.3721 16.2513C99.0777 16.1659 99.4021 15.4148 100.187 15.062C101.121 14.5726 102.481 14.2994 103.175 13.8954C103.767 13.554 104.051 13.093 104.051 13.093L104.034 13.0418Z" fill="black"/>
<path d="M101.388 19.95C101.2 19.472 100.796 18.6639 100.768 18.6127C99.9768 17.1047 99.8004 16.5414 98.8672 16.5072C98.3835 16.4902 97.3136 16.695 96.8356 16.7519L97.4844 17.2242C98.7249 18.4477 99.2484 19.9386 99.9313 22.2888C100.193 23.1879 100.415 23.8366 100.961 23.8821H104.228C103.255 23.6773 102.008 21.5206 101.388 19.95Z" fill="black"/>
<path d="M59.2325 16.7462C59.5625 16.3308 60.5185 15.6821 60.8656 15.1017C61.2412 14.6578 61.6623 13.6392 61.8672 13.5994C62.2086 13.5083 62.4305 13.9977 62.4078 14.2822C62.4362 14.8513 62.4191 15.2212 62.4248 15.8528C62.5785 18.2087 61.9355 20.7011 62.4931 23.6375C62.5842 24.3488 61.6794 23.9903 61.2469 24.0472C60.4787 24.0187 59.7901 24.087 59.0731 24.0699C58.9707 24.0472 58.965 23.9447 58.9081 23.7171C58.7601 23.0229 58.7374 22.2262 58.7374 21.5263C58.7203 20.2971 58.8 17.6624 59.2154 16.7861L59.2381 16.7462H59.2325Z" fill="black"/>
<path d="M58.1516 8.11958C57.3834 9.71292 56.985 10.686 57.6963 12.0517C58.163 12.9451 59.1076 13.4004 59.9953 13.389C61.0822 13.3719 62.0553 12.598 62.4081 11.0616C62.63 10.0885 61.9586 8.72846 61.2586 7.31152L59.7051 9.39994L58.1516 8.11389V8.11958Z" fill="black"/>
<path d="M60.8662 9.02984C60.8662 9.02984 60.8946 9.01846 60.9003 9.02984C61.3556 10.1736 61.2019 11.1296 60.4508 11.9149C60.0012 12.3872 59.546 12.5693 59.3184 11.9149C59.1192 11.3345 59.1306 10.737 59.1761 10.1566L60.024 11.4426C60.3085 11.1239 60.189 10.5435 60.354 9.8948C60.4109 9.67287 60.7694 9.15503 60.8662 9.02984Z" fill="white"/>
<path d="M38.3937 15.1754C38.3823 15.0673 38.3767 14.9364 38.3937 14.8169C38.3937 14.7714 38.388 14.7145 38.388 14.6519L38.4506 9.16055C38.4506 8.87602 38.4734 8.09642 38.4734 7.93139C38.4734 7.62411 38.1889 7.39648 37.9214 7.39648C37.5345 7.39648 36.9825 7.53306 36.1801 7.90294C36.1061 7.93139 35.685 8.10211 35.6793 8.17609C35.19 16.5298 35.3265 17.6906 35.4517 23.6998C35.4631 24.1323 36.3451 23.9445 37.0849 23.9104C37.9897 23.8762 38.0694 23.9331 38.6783 23.9104" fill="black"/>
<path d="M45.0292 22.0327C44.9893 21.805 44.9779 21.4921 44.9893 21.0198V16.8827C45.0121 14.7545 43.7203 13.1611 41.6718 13.4627C40.3174 13.6619 39.4012 14.4131 39.1281 14.7716C38.9175 15.0504 39.1281 15.4203 39.4638 15.3065C39.7597 15.204 39.9305 15.204 40.3459 15.204C41.5352 15.204 42.3148 16.0235 42.3148 17.6225V20.2857C42.3148 20.7637 42.3091 21.1393 42.2863 21.4409C42.292 22.1749 42.2465 22.3172 42.2977 23.7455C42.3091 24.1438 43.2025 23.9162 43.6691 23.9162H45.16C45.16 23.9162 45.0405 22.5733 45.0462 22.0327H45.0292Z" fill="black"/>
<path d="M66.7099 23.9162C66.3457 23.8934 65.6856 23.7739 65.2531 23.8365C64.9116 23.8194 64.2459 24.1324 64.1491 23.7853C64.0922 22.596 64.132 21.4237 64.1491 20.2344C64.2174 18.8858 64.0581 17.6452 64.0239 16.3649C64.0694 16.0007 63.8361 15.1812 64.3028 14.9024C64.8092 14.7487 65.6571 14.1285 65.9587 13.7415C66.118 13.531 66.4196 13.3432 66.6871 13.4684C66.983 13.6562 66.8293 14.2366 66.8407 14.5268C66.8407 14.7374 66.8294 16.5925 66.8123 18.6183C66.7724 20.1035 66.8464 22.926 66.744 23.9048" fill="black"/>
<path d="M73.1335 22.1832C73.0936 21.9556 73.0823 21.6426 73.0936 21.1703V17.0333C73.1164 14.905 71.8247 13.3117 69.7761 13.6133C68.4217 13.8124 67.5055 14.5636 67.2324 14.9221C67.0218 15.2009 67.2324 15.5708 67.5681 15.457C67.864 15.3546 68.0348 15.3546 68.4502 15.3546C69.6395 15.3546 70.4191 16.174 70.4191 17.773V20.4362C70.4191 20.9142 70.4134 21.2898 70.3906 21.5914C70.3963 22.3254 70.3508 22.4677 70.402 23.896C70.4134 24.2944 71.3068 24.0667 71.7734 24.0667H73.2644C73.2644 24.0667 73.1449 22.7238 73.1505 22.1832H73.1335Z" fill="black"/>
<path d="M75.0015 13.7247C75.0243 12.8199 75.6161 13.8385 76.8338 11.9777C76.9989 11.7273 77.1867 11.6135 77.346 11.6078C77.5395 11.6078 77.8354 11.7501 77.8354 12.1996V13.019C77.8354 13.6564 77.8581 13.7588 78.3874 13.7588C78.8369 13.7588 80.1685 13.6564 80.7034 13.6564C81.0335 13.6564 81.2781 13.6791 81.2781 14.271C81.2781 14.8059 81.0107 15.1701 80.6636 15.1701C80.4189 15.1701 78.6548 14.9254 78.2679 14.9254C77.7557 14.9254 77.6533 15.1928 77.6533 15.705C77.6533 15.705 77.5509 18.9599 77.5509 20.2346C77.5509 21.589 78.0232 22.1409 79.2694 22.1409C79.9466 22.1409 80.3734 21.8337 80.7262 21.8337C81.0335 21.8337 81.1131 22.1409 81.1131 22.2661C81.1131 22.8807 79.1897 23.9448 77.6704 23.9448C76.8054 23.9448 74.8137 23.9448 74.8422 21.4467C74.8991 16.6154 74.9275 16.6439 74.9958 13.7304L75.0015 13.7247Z" fill="black"/>
<path d="M87.0423 21.651C86.974 21.5486 86.8033 21.6567 86.5302 21.8331C86.2969 21.9811 85.9953 22.1177 85.7221 22.1233C84.5897 22.1689 84.3393 20.7178 85.0279 19.9951C85.6254 19.2155 86.8432 18.9025 87.213 17.9465C87.3155 17.5539 86.974 17.5368 86.6724 17.6506C84.8742 18.1855 81.5168 19.5626 81.7501 22.2941C81.7501 24.4565 84.8344 24.2288 86.0692 23.3923C86.4277 23.1476 86.7806 22.994 86.974 22.607C87.1334 22.2258 87.1049 22.0437 87.0594 21.6909L87.0366 21.651H87.0423Z" fill="black"/>
<path d="M87.7479 22.6245C88.1975 22.8578 88.6243 23.222 89.0795 23.4724C90.2347 24.0642 92.7783 23.5122 92.7613 22.0327C92.545 21.3897 91.6345 21.9075 91.1622 21.6514C90.5818 21.3954 90.5818 20.5589 90.559 20.0012C90.5477 18.5842 90.7184 17.099 90.6615 15.7219C90.6615 14.0717 89.4949 13.4514 88.0097 13.4286C86.1432 13.3603 84.1401 13.6563 82.7972 15.0447C81.2778 16.7121 82.9451 17.9867 84.3336 16.2739C84.6352 15.8699 84.6978 15.665 84.9254 15.3122C85.4546 14.3903 87.1732 14.0546 87.7195 15.039C87.9755 15.4886 88.0154 16.0633 88.0211 16.5698C87.9186 18.0095 87.9129 19.4947 87.8048 20.9458" fill="black"/>
<path d="M0 22.4616V4.32986C0 3.93055 1.66302 5.07927 3.69276 4.69788V22.46C3.69276 23.0123 3.24504 23.4616 2.69276 23.4616H1C0.447715 23.4616 0 23.0139 0 22.4616Z" fill="black"/>
<path d="M0 1.49583V0.488403C0.754892 0.75999 1.93201 0.713247 3.99475 0.638882C5.5822 0.574246 6.78871 0.569642 7.76423 0.598325C9.5436 0.650643 11.376 1.05894 12.6999 2.24896C13.6059 3.06331 14.213 4.07111 14.4486 5.46517C14.8999 8.13489 14.1279 11.2421 11.8424 12.6939C10.5774 13.4975 8.81542 13.8694 6.12342 14.0016C5.68239 14.0232 5.27239 13.7464 5.17388 13.316C4.969 12.4208 5.00831 11.7025 5.06832 10.606L5.07026 10.5704C6.17374 10.578 6.65611 10.5217 7.50373 10.4229L7.52857 10.42C9.28504 10.2962 10.2303 9.88722 10.6477 8.7332C11.2231 7.14225 10.8387 5.05107 9.3332 4.2792C8.17476 3.68527 6.46503 3.68781 3.99475 3.79892C3.14627 3.95661 2.48817 4.0047 1.93281 3.9752C0.722343 3.91089 0 2.70801 0 1.49583Z" fill="black"/>
<path d="M11.3697 16.5896C10.5753 14.8858 8.96117 14.701 5.68484 14.6334C7.0528 16.3189 7.63701 17.0892 8.14314 17.9439C9.0674 19.6885 9.73071 21.1523 10.334 22.2038C11.0268 23.4112 12.4092 23.8195 13.8013 23.8195H15.3644C14.0284 22.4003 13.5758 20.9149 13.2134 20.201C12.5544 19.0729 12.1471 18.2655 11.3697 16.5896Z" fill="black"/>
</svg>
