<svg width="32" height="33" viewBox="0 0 32 33" fill="none" xmlns="http://www.w3.org/2000/svg">
<path d="M8.83105 31.6736V25.829C8.83105 24.2961 9.57088 22.8854 10.6593 21.8061C11.6228 20.8506 12.4098 19.8334 13.4672 18.3237C14.1334 23.7573 14.1421 26.7911 14.1316 31.6755C14.1304 32.2271 13.683 32.6736 13.1315 32.6736H9.83105C9.27877 32.6736 8.83105 32.2259 8.83105 31.6736Z" fill="black"/>
<path d="M9.052 2.42929V0C10.1367 0.398447 11.8281 0.32987 14.792 0.220768C17.7262 0.0987808 19.7547 0.122542 21.336 0.20852C23.1443 0.306837 24.9481 0.781985 26.4082 1.85336C28.6411 3.49187 29.9477 5.63853 29.9705 9.26377C29.9872 11.9249 29.3239 14.6953 27.5319 16.6628C25.6134 18.7691 22.7649 19.6084 17.5278 19.8405C17.0842 19.8601 16.6783 19.5801 16.5664 19.1503C16.1827 17.6762 16.2412 16.5851 16.3345 14.8435L16.3373 14.7914C17.9229 14.8025 18.616 14.72 19.8339 14.5749L19.8696 14.5707C22.9187 14.3512 24.2665 13.5212 24.6309 10.8909C24.8587 9.24688 24.6363 7.41762 23.4425 6.26461C21.9655 4.83813 19.5967 4.67769 15.9272 4.80971C15.1719 4.83689 14.4202 4.94213 13.6702 5.03503C12.5474 5.17412 11.6887 5.14781 10.9412 5.01315C9.7562 4.79967 9.052 3.63336 9.052 2.42929Z" fill="black"/>
<path d="M25.3888 23.6221C24.2473 21.1225 21.9281 20.8514 17.2204 20.7522C19.186 23.225 20.0254 24.3552 20.7527 25.609C22.2475 28.49 23.2672 30.2974 24.2236 31.4652C25.1211 32.5612 26.5768 32.8944 27.9933 32.8944H31.1288C29.2091 30.8123 28.5587 29.9678 28.038 28.9206C27.0911 27.2654 26.5058 26.0809 25.3888 23.6221Z" fill="black"/>
<path d="M11.964 12.2692C10.8354 11.1235 10.2204 10.6752 9.49385 10.3148C9.23284 9.31976 9.30789 8.26316 9.71462 5.67871C11.8724 6.192 12.6984 6.09976 13.9092 5.67871C14.3649 7.19789 14.5093 10.2048 14.1219 12.0598C13.8882 13.1787 12.7661 13.0835 11.964 12.2692Z" fill="black"/>
<path d="M5.73996 20.7523C1.66445 20.3222 0.789793 18.1577 0 13.2462L4.19458 13.4669V7.94775L7.72686 10.1554C10.2737 11.8024 11.2591 13.0254 11.2591 15.6746C10.8176 19.6484 9.54448 20.6969 5.73996 20.7523Z" fill="black"/>
<path d="M7.06438 16.7784C5.59849 16.4321 4.95375 16.1209 3.97363 15.4538C4.56627 16.6423 5.12632 17.3473 5.92622 18.0085C6.67312 18.6258 7.88815 18.5018 8.13353 17.5644C8.23119 17.1913 8.26366 16.7685 8.24615 16.2477C8.22342 15.5715 8.0855 14.8989 7.81135 14.2803C7.32723 13.188 6.69006 12.4787 5.51901 11.48C5.49174 11.7359 5.47411 11.9661 5.47064 12.186C5.44739 13.6585 6.67861 14.8492 6.97402 16.2919C7.00489 16.4427 7.03441 16.6041 7.06438 16.7784Z" fill="white"/>
</svg>
