<svg width="32" height="32" viewBox="0 0 32 32" fill="none" xmlns="http://www.w3.org/2000/svg">
<g clip-path="url(#clip0_8016_3300)">
<path d="M32 16C32 16 32 16.0027 32 16.004C31.9973 16.9013 31.6453 17.7427 31.0053 18.372L25.4827 23.808C25.3533 23.936 25.184 24 25.0147 24C24.8427 24 24.6707 23.9333 24.54 23.8013C24.2827 23.54 24.2853 23.1173 24.548 22.8587L30.0707 17.4227C30.2893 17.2067 30.4453 16.948 30.5453 16.668H8.66667C8.29867 16.668 8 16.3693 8 16.0013C8 15.6333 8.29867 15.3347 8.66667 15.3347H30.5467C30.4467 15.0507 30.2907 14.7893 30.0693 14.572L24.548 9.14267C24.2853 8.88533 24.2813 8.46267 24.54 8.2C24.7973 7.936 25.22 7.93333 25.4827 8.192L31.004 13.6213C31.6453 14.2533 32 15.096 32 15.9973C32 15.9973 32 15.9987 32 16ZM15.3333 20C14.9653 20 14.6667 20.2987 14.6667 20.6667V26C14.6667 28.5733 12.5733 30.6667 10 30.6667H6C3.42667 30.6667 1.33333 28.5733 1.33333 26V6C1.33333 3.42667 3.42667 1.33333 6 1.33333H10C12.5733 1.33333 14.6667 3.42667 14.6667 6V11.3333C14.6667 11.7013 14.9653 12 15.3333 12C15.7013 12 16 11.7013 16 11.3333V6C16 2.692 13.308 0 10 0H6C2.692 0 0 2.692 0 6V26C0 29.308 2.692 32 6 32H10C13.308 32 16 29.308 16 26V20.6667C16 20.2987 15.7013 20 15.3333 20Z" fill="black"/>
</g>
<defs>
<clipPath id="clip0_8016_3300">
<rect width="32" height="32" fill="white"/>
</clipPath>
</defs>
</svg>
